<mxfile host="app.diagrams.net" modified="2023-09-23T13:00:06.130Z" agent="Mozilla/5.0 (Windows NT 10.0; Win64; x64) AppleWebKit/537.36 (KHTML, like Gecko) Chrome/117.0.0.0 Safari/537.36 Edg/117.0.2045.36" etag="WGPc_MiT_8iGcYPzZ-gJ" version="21.8.1" type="device">
  <diagram name="Page-1" id="xbKB45bEh95APbnnM6gg">
    <mxGraphModel dx="817" dy="1547" grid="1" gridSize="10" guides="1" tooltips="1" connect="1" arrows="1" fold="1" page="1" pageScale="1" pageWidth="850" pageHeight="1100" math="0" shadow="0">
      <root>
        <mxCell id="0" />
        <mxCell id="1" parent="0" />
        <mxCell id="usDsyjCfpWdygDeTRWyQ-1" value="kalkulator sederhana" style="text;html=1;strokeColor=none;fillColor=none;align=center;verticalAlign=middle;whiteSpace=wrap;rounded=0;" parent="1" vertex="1">
          <mxGeometry x="365" y="-1050" width="120" height="30" as="geometry" />
        </mxCell>
        <mxCell id="usDsyjCfpWdygDeTRWyQ-2" value="main" style="strokeWidth=2;html=1;shape=mxgraph.flowchart.terminator;whiteSpace=wrap;" parent="1" vertex="1">
          <mxGeometry x="375" y="-990" width="100" height="60" as="geometry" />
        </mxCell>
        <mxCell id="usDsyjCfpWdygDeTRWyQ-3" value="real value1" style="shape=internalStorage;whiteSpace=wrap;html=1;dx=15;dy=15;rounded=1;arcSize=8;strokeWidth=2;" parent="1" vertex="1">
          <mxGeometry x="365" y="-890" width="120" height="70" as="geometry" />
        </mxCell>
        <mxCell id="usDsyjCfpWdygDeTRWyQ-26" value="" style="edgeStyle=orthogonalEdgeStyle;rounded=0;orthogonalLoop=1;jettySize=auto;html=1;" parent="1" source="usDsyjCfpWdygDeTRWyQ-4" target="usDsyjCfpWdygDeTRWyQ-5" edge="1">
          <mxGeometry relative="1" as="geometry">
            <Array as="points">
              <mxPoint x="423" y="-690" />
              <mxPoint x="423" y="-690" />
            </Array>
          </mxGeometry>
        </mxCell>
        <mxCell id="usDsyjCfpWdygDeTRWyQ-4" value="real value2" style="shape=internalStorage;whiteSpace=wrap;html=1;dx=15;dy=15;rounded=1;arcSize=8;strokeWidth=2;" parent="1" vertex="1">
          <mxGeometry x="365" y="-780" width="120" height="70" as="geometry" />
        </mxCell>
        <mxCell id="usDsyjCfpWdygDeTRWyQ-5" value="input value1" style="shape=parallelogram;html=1;strokeWidth=2;perimeter=parallelogramPerimeter;whiteSpace=wrap;rounded=1;arcSize=12;size=0.23;" parent="1" vertex="1">
          <mxGeometry x="357.5" y="-650" width="130" height="60" as="geometry" />
        </mxCell>
        <mxCell id="usDsyjCfpWdygDeTRWyQ-7" value="penjumlahan" style="shape=internalStorage;whiteSpace=wrap;html=1;dx=15;dy=15;rounded=1;arcSize=8;strokeWidth=2;" parent="1" vertex="1">
          <mxGeometry x="355" y="-440" width="130" height="70" as="geometry" />
        </mxCell>
        <mxCell id="usDsyjCfpWdygDeTRWyQ-8" value="pengurangan" style="shape=internalStorage;whiteSpace=wrap;html=1;dx=15;dy=15;rounded=1;arcSize=8;strokeWidth=2;" parent="1" vertex="1">
          <mxGeometry x="355" y="-330" width="130" height="70" as="geometry" />
        </mxCell>
        <mxCell id="usDsyjCfpWdygDeTRWyQ-9" value="perkalian" style="shape=internalStorage;whiteSpace=wrap;html=1;dx=15;dy=15;rounded=1;arcSize=8;strokeWidth=2;" parent="1" vertex="1">
          <mxGeometry x="357.5" y="-220" width="130" height="70" as="geometry" />
        </mxCell>
        <mxCell id="usDsyjCfpWdygDeTRWyQ-10" value="pembagian" style="shape=internalStorage;whiteSpace=wrap;html=1;dx=15;dy=15;rounded=1;arcSize=8;strokeWidth=2;" parent="1" vertex="1">
          <mxGeometry x="360" y="-110" width="130" height="70" as="geometry" />
        </mxCell>
        <mxCell id="usDsyjCfpWdygDeTRWyQ-11" value="hasil dari penjumlahan (value1+value2)" style="rounded=1;whiteSpace=wrap;html=1;absoluteArcSize=1;arcSize=14;strokeWidth=2;" parent="1" vertex="1">
          <mxGeometry x="300" width="270" height="100" as="geometry" />
        </mxCell>
        <mxCell id="usDsyjCfpWdygDeTRWyQ-12" value="hasil dari pengurangan (value1-value2)" style="rounded=1;whiteSpace=wrap;html=1;absoluteArcSize=1;arcSize=14;strokeWidth=2;" parent="1" vertex="1">
          <mxGeometry x="300" y="150" width="270" height="100" as="geometry" />
        </mxCell>
        <mxCell id="usDsyjCfpWdygDeTRWyQ-13" value="hasil dari perkalian (value1*value2)" style="rounded=1;whiteSpace=wrap;html=1;absoluteArcSize=1;arcSize=14;strokeWidth=2;" parent="1" vertex="1">
          <mxGeometry x="300" y="290" width="270" height="100" as="geometry" />
        </mxCell>
        <mxCell id="usDsyjCfpWdygDeTRWyQ-14" value="hasil dari pembagian (value1/value2)" style="rounded=1;whiteSpace=wrap;html=1;absoluteArcSize=1;arcSize=14;strokeWidth=2;" parent="1" vertex="1">
          <mxGeometry x="300" y="440" width="270" height="100" as="geometry" />
        </mxCell>
        <mxCell id="usDsyjCfpWdygDeTRWyQ-18" value="output value1+value2" style="shape=parallelogram;html=1;strokeWidth=2;perimeter=parallelogramPerimeter;whiteSpace=wrap;rounded=1;arcSize=12;size=0.23;" parent="1" vertex="1">
          <mxGeometry x="338" y="590" width="175" height="60" as="geometry" />
        </mxCell>
        <mxCell id="usDsyjCfpWdygDeTRWyQ-19" value="output value1-value2" style="shape=parallelogram;html=1;strokeWidth=2;perimeter=parallelogramPerimeter;whiteSpace=wrap;rounded=1;arcSize=12;size=0.23;" parent="1" vertex="1">
          <mxGeometry x="332.5" y="710" width="175" height="60" as="geometry" />
        </mxCell>
        <mxCell id="usDsyjCfpWdygDeTRWyQ-20" value="output value1*value2" style="shape=parallelogram;html=1;strokeWidth=2;perimeter=parallelogramPerimeter;whiteSpace=wrap;rounded=1;arcSize=12;size=0.23;" parent="1" vertex="1">
          <mxGeometry x="332.5" y="820" width="175" height="60" as="geometry" />
        </mxCell>
        <mxCell id="usDsyjCfpWdygDeTRWyQ-21" value="output value1/value2" style="shape=parallelogram;html=1;strokeWidth=2;perimeter=parallelogramPerimeter;whiteSpace=wrap;rounded=1;arcSize=12;size=0.23;" parent="1" vertex="1">
          <mxGeometry x="330" y="910" width="175" height="60" as="geometry" />
        </mxCell>
        <mxCell id="usDsyjCfpWdygDeTRWyQ-22" value="end" style="strokeWidth=2;html=1;shape=mxgraph.flowchart.terminator;whiteSpace=wrap;" parent="1" vertex="1">
          <mxGeometry x="367.5" y="1010" width="100" height="60" as="geometry" />
        </mxCell>
        <mxCell id="usDsyjCfpWdygDeTRWyQ-23" value="" style="endArrow=classic;html=1;rounded=0;exitX=0.5;exitY=1;exitDx=0;exitDy=0;exitPerimeter=0;" parent="1" source="usDsyjCfpWdygDeTRWyQ-2" edge="1">
          <mxGeometry width="50" height="50" relative="1" as="geometry">
            <mxPoint x="390" y="-880" as="sourcePoint" />
            <mxPoint x="425" y="-890" as="targetPoint" />
          </mxGeometry>
        </mxCell>
        <mxCell id="usDsyjCfpWdygDeTRWyQ-24" value="" style="endArrow=classic;html=1;rounded=0;exitX=0.5;exitY=1;exitDx=0;exitDy=0;" parent="1" source="usDsyjCfpWdygDeTRWyQ-3" edge="1">
          <mxGeometry width="50" height="50" relative="1" as="geometry">
            <mxPoint x="390" y="-880" as="sourcePoint" />
            <mxPoint x="425" y="-780" as="targetPoint" />
          </mxGeometry>
        </mxCell>
        <mxCell id="usDsyjCfpWdygDeTRWyQ-27" value="" style="endArrow=classic;html=1;rounded=0;entryX=0.5;entryY=0;entryDx=0;entryDy=0;" parent="1" target="usDsyjCfpWdygDeTRWyQ-6" edge="1">
          <mxGeometry width="50" height="50" relative="1" as="geometry">
            <mxPoint x="420" y="-590" as="sourcePoint" />
            <mxPoint x="440" y="-670" as="targetPoint" />
          </mxGeometry>
        </mxCell>
        <mxCell id="usDsyjCfpWdygDeTRWyQ-28" value="" style="endArrow=classic;html=1;rounded=0;" parent="1" source="usDsyjCfpWdygDeTRWyQ-6" edge="1">
          <mxGeometry width="50" height="50" relative="1" as="geometry">
            <mxPoint x="410" y="-490" as="sourcePoint" />
            <mxPoint x="440" y="-540" as="targetPoint" />
          </mxGeometry>
        </mxCell>
        <mxCell id="usDsyjCfpWdygDeTRWyQ-29" value="" style="endArrow=classic;html=1;rounded=0;" parent="1" target="usDsyjCfpWdygDeTRWyQ-6" edge="1">
          <mxGeometry width="50" height="50" relative="1" as="geometry">
            <mxPoint x="410" y="-490" as="sourcePoint" />
            <mxPoint x="440" y="-540" as="targetPoint" />
          </mxGeometry>
        </mxCell>
        <mxCell id="usDsyjCfpWdygDeTRWyQ-6" value="input value2" style="shape=parallelogram;html=1;strokeWidth=2;perimeter=parallelogramPerimeter;whiteSpace=wrap;rounded=1;arcSize=12;size=0.23;" parent="1" vertex="1">
          <mxGeometry x="355" y="-540" width="130" height="60" as="geometry" />
        </mxCell>
        <mxCell id="usDsyjCfpWdygDeTRWyQ-30" value="" style="endArrow=classic;html=1;rounded=0;exitX=0.5;exitY=1;exitDx=0;exitDy=0;entryX=0.5;entryY=0;entryDx=0;entryDy=0;" parent="1" source="usDsyjCfpWdygDeTRWyQ-6" target="usDsyjCfpWdygDeTRWyQ-7" edge="1">
          <mxGeometry width="50" height="50" relative="1" as="geometry">
            <mxPoint x="390" y="-490" as="sourcePoint" />
            <mxPoint x="440" y="-540" as="targetPoint" />
          </mxGeometry>
        </mxCell>
        <mxCell id="usDsyjCfpWdygDeTRWyQ-31" value="" style="endArrow=classic;html=1;rounded=0;exitX=0.5;exitY=1;exitDx=0;exitDy=0;entryX=0.5;entryY=0;entryDx=0;entryDy=0;" parent="1" source="usDsyjCfpWdygDeTRWyQ-7" target="usDsyjCfpWdygDeTRWyQ-8" edge="1">
          <mxGeometry width="50" height="50" relative="1" as="geometry">
            <mxPoint x="390" y="-400" as="sourcePoint" />
            <mxPoint x="440" y="-450" as="targetPoint" />
          </mxGeometry>
        </mxCell>
        <mxCell id="usDsyjCfpWdygDeTRWyQ-32" value="" style="endArrow=classic;html=1;rounded=0;exitX=0.5;exitY=1;exitDx=0;exitDy=0;" parent="1" source="usDsyjCfpWdygDeTRWyQ-8" target="usDsyjCfpWdygDeTRWyQ-9" edge="1">
          <mxGeometry width="50" height="50" relative="1" as="geometry">
            <mxPoint x="440" y="-270" as="sourcePoint" />
            <mxPoint x="490" y="-320" as="targetPoint" />
          </mxGeometry>
        </mxCell>
        <mxCell id="usDsyjCfpWdygDeTRWyQ-33" value="" style="endArrow=classic;html=1;rounded=0;exitX=0.5;exitY=1;exitDx=0;exitDy=0;" parent="1" source="usDsyjCfpWdygDeTRWyQ-9" edge="1">
          <mxGeometry width="50" height="50" relative="1" as="geometry">
            <mxPoint x="440" y="-140" as="sourcePoint" />
            <mxPoint x="423" y="-110" as="targetPoint" />
          </mxGeometry>
        </mxCell>
        <mxCell id="usDsyjCfpWdygDeTRWyQ-36" value="" style="endArrow=classic;html=1;rounded=0;exitX=0.5;exitY=1;exitDx=0;exitDy=0;entryX=0.463;entryY=-0.01;entryDx=0;entryDy=0;entryPerimeter=0;" parent="1" source="usDsyjCfpWdygDeTRWyQ-10" target="usDsyjCfpWdygDeTRWyQ-11" edge="1">
          <mxGeometry width="50" height="50" relative="1" as="geometry">
            <mxPoint x="440" y="-40" as="sourcePoint" />
            <mxPoint x="490" y="-90" as="targetPoint" />
          </mxGeometry>
        </mxCell>
        <mxCell id="usDsyjCfpWdygDeTRWyQ-37" value="" style="endArrow=classic;html=1;rounded=0;exitX=0.459;exitY=1.01;exitDx=0;exitDy=0;exitPerimeter=0;entryX=0.459;entryY=-0.03;entryDx=0;entryDy=0;entryPerimeter=0;" parent="1" source="usDsyjCfpWdygDeTRWyQ-11" target="usDsyjCfpWdygDeTRWyQ-12" edge="1">
          <mxGeometry width="50" height="50" relative="1" as="geometry">
            <mxPoint x="440" y="140" as="sourcePoint" />
            <mxPoint x="490" y="90" as="targetPoint" />
          </mxGeometry>
        </mxCell>
        <mxCell id="usDsyjCfpWdygDeTRWyQ-38" value="" style="endArrow=classic;html=1;rounded=0;exitX=0.459;exitY=1;exitDx=0;exitDy=0;exitPerimeter=0;entryX=0.463;entryY=0;entryDx=0;entryDy=0;entryPerimeter=0;" parent="1" source="usDsyjCfpWdygDeTRWyQ-12" target="usDsyjCfpWdygDeTRWyQ-13" edge="1">
          <mxGeometry width="50" height="50" relative="1" as="geometry">
            <mxPoint x="440" y="290" as="sourcePoint" />
            <mxPoint x="490" y="240" as="targetPoint" />
          </mxGeometry>
        </mxCell>
        <mxCell id="usDsyjCfpWdygDeTRWyQ-39" value="" style="endArrow=classic;html=1;rounded=0;exitX=0.463;exitY=1.01;exitDx=0;exitDy=0;exitPerimeter=0;entryX=0.463;entryY=0.02;entryDx=0;entryDy=0;entryPerimeter=0;" parent="1" source="usDsyjCfpWdygDeTRWyQ-13" target="usDsyjCfpWdygDeTRWyQ-14" edge="1">
          <mxGeometry width="50" height="50" relative="1" as="geometry">
            <mxPoint x="435" y="420" as="sourcePoint" />
            <mxPoint x="485" y="370" as="targetPoint" />
          </mxGeometry>
        </mxCell>
        <mxCell id="usDsyjCfpWdygDeTRWyQ-41" value="" style="endArrow=classic;html=1;rounded=0;exitX=0.456;exitY=1.02;exitDx=0;exitDy=0;exitPerimeter=0;" parent="1" source="usDsyjCfpWdygDeTRWyQ-14" edge="1">
          <mxGeometry width="50" height="50" relative="1" as="geometry">
            <mxPoint x="440" y="600" as="sourcePoint" />
            <mxPoint x="423" y="590" as="targetPoint" />
          </mxGeometry>
        </mxCell>
        <mxCell id="usDsyjCfpWdygDeTRWyQ-42" value="" style="endArrow=classic;html=1;rounded=0;exitX=0.5;exitY=1;exitDx=0;exitDy=0;entryX=0.54;entryY=-0.083;entryDx=0;entryDy=0;entryPerimeter=0;" parent="1" source="usDsyjCfpWdygDeTRWyQ-18" target="usDsyjCfpWdygDeTRWyQ-19" edge="1">
          <mxGeometry width="50" height="50" relative="1" as="geometry">
            <mxPoint x="440" y="810" as="sourcePoint" />
            <mxPoint x="490" y="760" as="targetPoint" />
          </mxGeometry>
        </mxCell>
        <mxCell id="usDsyjCfpWdygDeTRWyQ-43" value="" style="endArrow=classic;html=1;rounded=0;exitX=0.5;exitY=1;exitDx=0;exitDy=0;entryX=0.5;entryY=0;entryDx=0;entryDy=0;" parent="1" source="usDsyjCfpWdygDeTRWyQ-19" target="usDsyjCfpWdygDeTRWyQ-20" edge="1">
          <mxGeometry width="50" height="50" relative="1" as="geometry">
            <mxPoint x="440" y="810" as="sourcePoint" />
            <mxPoint x="440" y="810" as="targetPoint" />
          </mxGeometry>
        </mxCell>
        <mxCell id="usDsyjCfpWdygDeTRWyQ-44" value="" style="endArrow=classic;html=1;rounded=0;exitX=0.5;exitY=1;exitDx=0;exitDy=0;" parent="1" source="usDsyjCfpWdygDeTRWyQ-20" edge="1">
          <mxGeometry width="50" height="50" relative="1" as="geometry">
            <mxPoint x="440" y="900" as="sourcePoint" />
            <mxPoint x="420" y="910" as="targetPoint" />
          </mxGeometry>
        </mxCell>
        <mxCell id="usDsyjCfpWdygDeTRWyQ-45" value="" style="endArrow=classic;html=1;rounded=0;exitX=0.5;exitY=1;exitDx=0;exitDy=0;entryX=0.5;entryY=0;entryDx=0;entryDy=0;entryPerimeter=0;" parent="1" source="usDsyjCfpWdygDeTRWyQ-21" target="usDsyjCfpWdygDeTRWyQ-22" edge="1">
          <mxGeometry width="50" height="50" relative="1" as="geometry">
            <mxPoint x="440" y="930" as="sourcePoint" />
            <mxPoint x="490" y="880" as="targetPoint" />
          </mxGeometry>
        </mxCell>
      </root>
    </mxGraphModel>
  </diagram>
</mxfile>
